<svg xmlns="http://www.w3.org/2000/svg" xmlns:xlink="http://www.w3.org/1999/xlink" width="1920" zoomAndPan="magnify" viewBox="0 0 1440 809.999993" height="1080" preserveAspectRatio="xMidYMid meet" version="1.0"><defs><clipPath id="bae3669ddb"><path d="M 604.5 365.25 L 835.5 365.25 L 835.5 444 L 604.5 444 Z M 604.5 365.25 " clip-rule="nonzero"/></clipPath></defs><g clip-path="url(#bae3669ddb)"><path fill="#000000" d="M 833.242188 388.121094 C 831.351562 389.457031 828.929688 392.203125 828.59375 397.753906 C 828.679688 400.140625 828.59375 402.53125 828.457031 404.859375 C 827.148438 425.402344 822.753906 438.367188 785.46875 442.917969 C 783.828125 443.113281 782.214844 443.222656 780.65625 443.304688 C 740.785156 444.75 725.925781 406.777344 729.183594 388.289062 C 729.210938 388.234375 729.183594 388.179688 729.210938 388.152344 C 726.957031 387.34375 724.089844 386.707031 720.554688 386.707031 C 717.71875 386.707031 714.492188 387.125 710.875 388.207031 C 710.875 388.234375 710.875 388.289062 710.875 388.316406 C 714.101562 406.75 699.269531 444.722656 659.34375 443.25 C 657.785156 443.195312 656.171875 443.058594 654.53125 442.863281 C 617.246094 438.335938 612.878906 425.375 611.542969 404.804688 C 611.375 402.472656 611.320312 400.085938 611.40625 397.699219 C 611.097656 392.148438 608.648438 389.398438 606.757812 388.066406 C 605.421875 387.125 604.699219 385.511719 604.808594 383.875 C 605.03125 380.90625 605.285156 377.9375 605.507812 374.964844 C 605.699219 372.660156 607.535156 370.800781 609.847656 370.605469 C 609.875 370.605469 609.902344 370.605469 609.929688 370.605469 C 623.257812 369.496094 636.25 366.445312 649.496094 365.636719 C 654.640625 365.304688 659.816406 365.25 664.992188 365.445312 C 673.144531 365.75 681.269531 366.75 689.226562 368.527344 C 691.507812 369.054688 693.707031 369.746094 695.792969 370.605469 C 695.792969 370.605469 706.339844 372.132812 720.835938 372.132812 C 727.847656 372.132812 735.804688 371.773438 743.902344 370.71875 C 746.042969 369.800781 748.324219 369.082031 750.6875 368.554688 C 758.648438 366.75 766.769531 365.777344 774.921875 365.472656 C 780.097656 365.277344 785.273438 365.332031 790.421875 365.667969 C 803.722656 366.5 816.714844 369.550781 830.042969 370.664062 C 830.070312 370.664062 830.097656 370.664062 830.125 370.664062 C 832.433594 370.855469 834.300781 372.6875 834.464844 375.019531 C 834.6875 377.992188 834.9375 380.960938 835.160156 383.929688 C 835.300781 385.570312 834.578125 387.179688 833.242188 388.121094 Z M 833.242188 388.121094 " fill-opacity="1" fill-rule="nonzero"/></g><path fill="#ffffff" d="M 646.933594 434.285156 C 613.601562 428.734375 621.058594 390.59375 621.058594 390.59375 C 622.953125 424.542969 646.933594 434.285156 646.933594 434.285156 Z M 743.316406 389.207031 C 743.316406 389.207031 735.832031 427.34375 769.191406 432.898438 C 769.191406 432.898438 745.234375 423.152344 743.316406 389.207031 Z M 743.316406 389.207031 " fill-opacity="1" fill-rule="nonzero"/></svg>